<svg width="32" height="32" viewBox="0 0 32 32" fill="none" xmlns="http://www.w3.org/2000/svg">
<path d="M17.5029 20.4822H14.4914C8.40992 20.4822 6.02383 15.5641 8.02299 11.6993L8.58911 10.6049C9.75209 8.35664 12.6391 6.99365 15.3307 6.99365H16.6636C19.3552 6.99365 22.2422 8.35664 23.4052 10.6049L23.9713 11.6993C25.9704 15.5642 23.5843 20.4822 17.5029 20.4822Z" fill="url(#paint0_linear_400_72363)"/>
<g clip-path="url(#clip0_400_72363)">
<path d="M26.4289 29.3333H5.565C5.06853 29.3333 4.66602 28.9308 4.66602 28.4344C4.66602 23.6381 8.55413 19.75 13.3504 19.75H18.6436C23.4398 19.75 27.328 23.6381 27.328 28.4344C27.3279 28.9309 26.9254 29.3333 26.4289 29.3333Z" fill="url(#paint1_linear_400_72363)"/>
<path opacity="0.34" d="M14.3707 29.5341L11.046 26.6536C10.5236 26.2009 10.3198 25.4813 10.5274 24.8219L12.0774 19.8985C12.0916 19.8533 12.1579 19.8628 12.1593 19.9101C12.3073 24.8952 13.8706 28.2538 14.5074 29.4248C14.5546 29.5117 14.4455 29.5989 14.3707 29.5341Z" fill="white"/>
<path opacity="0.34" d="M17.8654 29.3109L20.8361 26.4304C21.3029 25.9778 21.485 25.2581 21.2995 24.5988L19.9146 19.6753C19.9018 19.6301 19.8426 19.6396 19.8414 19.687C19.7092 24.6721 18.3123 28.0306 17.7433 29.2017C17.7011 29.2886 17.7986 29.3758 17.8654 29.3109Z" fill="white"/>
<path d="M15.9968 31.2577C18.1363 31.2577 19.8706 22.293 19.8706 20.1536C19.8706 18.0141 18.1363 16.2798 15.9968 16.2798C13.8574 16.2798 12.123 18.0141 12.123 20.1536C12.123 22.293 13.8574 31.2577 15.9968 31.2577Z" fill="url(#paint2_linear_400_72363)"/>
</g>
<path fill-rule="evenodd" clip-rule="evenodd" d="M13.5571 20.7583C11.4345 19.8548 9.91581 17.8078 9.77473 15.3908C8.87053 15.135 8.20801 14.3037 8.20801 13.3176C8.20801 12.3254 8.8786 11.49 9.79124 11.2398C10.0868 8.07322 12.7518 5.59473 15.9955 5.59473C19.2392 5.59473 21.9041 8.07306 22.1998 11.2395C23.113 11.4893 23.7842 12.325 23.7842 13.3176C23.7842 14.3041 23.1211 15.1357 22.2163 15.3911C22.0753 17.8059 20.5592 19.8514 18.4396 20.756C18.1695 21.8534 17.1788 22.6673 15.998 22.6673C14.8181 22.6673 13.828 21.8545 13.5571 20.7583Z" fill="url(#paint3_linear_400_72363)"/>
<path d="M12.6582 9.52309C12.627 9.53088 12.5967 9.5393 12.5657 9.54829C11.4736 9.86516 10.8826 10.6899 10.9539 11.5403C11.0101 12.2142 10.1056 12.6359 9.256 12.3342C9.25506 12.3338 9.25406 12.3335 9.25312 12.3331C9.0779 12.2705 8.94499 12.1225 8.90122 11.9417C8.50598 10.3076 8.94509 8.62081 10.1419 7.2583C11.2216 7.87169 12.2155 8.84089 12.6582 9.52309Z" fill="url(#paint4_linear_400_72363)"/>
<path d="M22.7535 7.96144C23.3399 8.72708 23.5177 9.72902 23.2296 10.6494C23.123 10.9899 23.0358 11.3364 22.9699 11.6877C22.9538 11.7706 22.9359 11.8541 22.9164 11.9375C22.8783 12.0936 22.777 12.2249 22.6382 12.2992C22.614 12.3124 22.5893 12.324 22.5628 12.3332L22.5605 12.3343C22.268 12.4379 21.9697 12.4564 21.7059 12.408C21.0674 12.2917 20.4092 12.305 19.7942 12.5122C16.9318 13.4762 13.4861 12.7219 11.0267 10.3189C10.7906 10.0886 10.5701 9.8485 10.3645 9.60144C10.2873 9.50931 10.2125 9.41603 10.1393 9.32159C10.135 9.316 10.1307 9.31035 10.1264 9.30471C9.46948 8.43945 9.62362 7.2019 10.4655 6.51516C11.9491 5.30491 13.8437 4.5791 15.908 4.5791C18.6983 4.5791 21.1786 5.90512 22.7535 7.96144Z" fill="url(#paint5_linear_400_72363)"/>
<path d="M15.9975 2.6665C13.1513 2.6665 10.7125 3.90096 9.6897 5.65506C9.52666 5.93469 9.55668 6.2868 9.76081 6.53804L12.0218 9.32158C12.257 9.61115 12.648 9.72142 13.0004 9.59907C13.905 9.28503 14.9221 9.10861 15.9975 9.10861C17.0729 9.10861 18.0899 9.28508 18.9945 9.59907C19.3469 9.72142 19.7379 9.61115 19.9731 9.32158L22.2341 6.53804C22.4382 6.2868 22.4683 5.93469 22.3053 5.65506C21.2825 3.90096 18.8436 2.6665 15.9975 2.6665Z" fill="url(#paint6_linear_400_72363)"/>
<path d="M17.6716 5.09341H16.6208V4.04265C16.6208 3.8964 16.5023 3.77783 16.356 3.77783H15.4163C15.2701 3.77783 15.1515 3.8964 15.1515 4.04265V5.09341H14.1008C13.9545 5.09341 13.8359 5.21198 13.8359 5.35824V6.29792C13.8359 6.44418 13.9545 6.56274 14.1008 6.56274H15.1515V7.6135C15.1515 7.75976 15.2701 7.87832 15.4163 7.87832H16.356C16.5023 7.87832 16.6208 7.75976 16.6208 7.6135V6.56274H17.6716C17.8179 6.56274 17.9364 6.44418 17.9364 6.29792V5.35824C17.9364 5.21198 17.8179 5.09341 17.6716 5.09341Z" fill="url(#paint7_linear_400_72363)"/>
<defs>
<linearGradient id="paint0_linear_400_72363" x1="9.58305" y1="11.6275" x2="14.2247" y2="20.5667" gradientUnits="userSpaceOnUse">
<stop stop-color="#280E6C"/>
<stop offset="1" stop-color="#1A0A48"/>
</linearGradient>
<linearGradient id="paint1_linear_400_72363" x1="7.88507" y1="23.2933" x2="18.6079" y2="43.3369" gradientUnits="userSpaceOnUse">
<stop stop-color="#CCE9FF"/>
<stop offset="1" stop-color="#75BDFF"/>
</linearGradient>
<linearGradient id="paint2_linear_400_72363" x1="18.6492" y1="14.3509" x2="19.2794" y2="24.0558" gradientUnits="userSpaceOnUse">
<stop stop-color="#175BB7" stop-opacity="0"/>
<stop offset="1" stop-color="#175BB7"/>
</linearGradient>
<linearGradient id="paint3_linear_400_72363" x1="11.8125" y1="10.6116" x2="20.1251" y2="16.1999" gradientUnits="userSpaceOnUse">
<stop stop-color="#FFDFCF"/>
<stop offset="1" stop-color="#FFA78F"/>
</linearGradient>
<linearGradient id="paint4_linear_400_72363" x1="9.2663" y1="9.03613" x2="11.4275" y2="11.4762" gradientUnits="userSpaceOnUse">
<stop stop-color="#280E6C"/>
<stop offset="1" stop-color="#1A0A48"/>
</linearGradient>
<linearGradient id="paint5_linear_400_72363" x1="11.4918" y1="7.44432" x2="13.9455" y2="13.4613" gradientUnits="userSpaceOnUse">
<stop stop-color="#280E6C"/>
<stop offset="1" stop-color="#1A0A48"/>
</linearGradient>
<linearGradient id="paint6_linear_400_72363" x1="20.5318" y1="8.62588" x2="16.3854" y2="1.00933" gradientUnits="userSpaceOnUse">
<stop stop-color="#1250DC"/>
<stop offset="1" stop-color="#306DE4"/>
</linearGradient>
<linearGradient id="paint7_linear_400_72363" x1="15.8862" y1="3.77783" x2="15.8862" y2="7.87832" gradientUnits="userSpaceOnUse">
<stop stop-color="white"/>
<stop offset="1" stop-color="white" stop-opacity="0.8"/>
</linearGradient>
<clipPath id="clip0_400_72363">
<rect width="22.662" height="9.58334" fill="white" transform="translate(4.6665 19.75)"/>
</clipPath>
</defs>
</svg>
