<svg width="32" height="32" viewBox="0 0 32 32" fill="none" xmlns="http://www.w3.org/2000/svg">
<path fill-rule="evenodd" clip-rule="evenodd" d="M22.2459 10.1728C24.7891 10.7629 25.762 12.25 26.9817 14.2969H22.2459V10.1728ZM7.38322 14.4688C7.88116 14.4688 8.24259 14.7091 8.24259 15.2708C8.24259 15.7446 7.85923 16.1289 7.38568 16.1302H2.19385C1.71918 16.1302 1.33447 16.5151 1.33447 16.9896C1.33447 17.4643 1.71918 17.849 2.19385 17.849H9.92822C10.4074 17.849 10.791 18.2334 10.791 18.7083C10.791 19.183 10.4062 19.5677 9.93158 19.5677H2.19385C1.71918 19.5677 1.33447 19.9524 1.33447 20.4271C1.33447 20.9018 1.71918 21.2865 2.19385 21.2865H4.08447V23.8646C4.08447 24.3393 4.46918 24.724 4.94385 24.724H6.67133C6.97927 26.2408 8.31958 27.3594 9.89958 27.3594C11.4796 27.3594 12.8199 26.2408 13.1278 24.724H21.8536C22.1616 26.2408 23.5019 27.3594 25.0819 27.3594C26.6619 27.3594 28.0022 26.2408 28.3101 24.724H29.8084C30.2831 24.724 30.6678 24.3393 30.6678 23.8646V18.7083C30.6678 16.1868 28.0082 16.0194 28.0058 16.0156H21.3866C20.9119 16.0156 20.5272 15.6309 20.5272 15.1562V10H4.94385C4.46918 10 4.08447 10.3847 4.08447 10.8594V12.75H3.05322C2.57855 12.75 2.19385 13.1347 2.19385 13.6094C2.19385 14.084 2.57855 14.4688 3.05322 14.4688H7.38322ZM26.1959 22.951C26.8111 23.5663 26.8111 24.5642 26.1959 25.1794C25.2063 26.169 23.5063 25.4649 23.5063 24.0651C23.5063 22.6655 25.2063 21.9614 26.1959 22.951ZM11.0136 22.951C11.6288 23.5663 11.6288 24.5642 11.0136 25.1794C10.024 26.169 8.32406 25.4649 8.32406 24.0651C8.32406 22.6655 10.024 21.9614 11.0136 22.951Z" fill="url(#paint0_linear_1072_35606)"/>
<defs>
<linearGradient id="paint0_linear_1072_35606" x1="26.372" y1="24.8172" x2="15.6119" y2="6.63508" gradientUnits="userSpaceOnUse">
<stop stop-color="#1250DC"/>
<stop offset="1" stop-color="#306DE4"/>
</linearGradient>
</defs>
</svg>
