<svg width="32" height="32" viewBox="0 0 32 32" fill="none" xmlns="http://www.w3.org/2000/svg">
<path d="M26.1501 9.20306C25.6237 7.80564 25.8864 5.90567 24.6874 4.7195C23.5016 3.52012 21.6026 3.78291 20.2048 3.25731C18.8509 2.62042 17.7181 1.10603 16 1.12122C14.282 1.10508 13.1501 2.62208 11.7957 3.2563C10.3975 3.78298 8.49887 3.51999 7.31275 4.7195C6.11318 5.90567 6.37739 7.80583 5.85005 9.20306C5.21444 10.5562 3.69859 11.6897 3.71448 13.4068C3.69859 15.1251 5.21547 16.2558 5.85006 17.6106C6.37643 19.008 6.1137 20.908 7.31269 22.0941C8.49842 23.2936 10.3974 23.0307 11.7952 23.5563C13.1492 24.1932 14.2821 25.7077 16 25.6925C17.7181 25.7086 18.85 24.1915 20.2043 23.5573C21.6026 23.0306 23.5013 23.2937 24.6874 22.0942C25.8869 20.9079 25.6227 19.0078 26.1501 17.6106C26.7857 16.2575 28.3016 15.124 28.2857 13.4068C28.3016 11.6886 26.7846 10.5578 26.1501 9.20306Z" fill="url(#paint0_linear_854_31092)"/>
<path d="M27.1219 27.3442C26.9755 27.6056 26.6932 27.7624 26.39 27.7415L23.1487 27.5324L21.7058 30.4391C21.5803 30.711 21.298 30.8783 21.0052 30.8783C21.0052 30.8783 21.0052 30.8783 20.9948 30.8783C20.6916 30.8783 20.4197 30.7005 20.2943 30.4287L18.5815 26.5078C19.0207 26.2464 19.4075 25.9641 19.7631 25.7027C20.1395 25.4204 20.4949 25.159 20.8086 25.0021C21.1536 24.8871 21.6032 24.8139 22.0738 24.7407C23.0043 24.5944 24.1127 24.4271 25.085 23.7788L27.0906 26.5078C27.2578 26.7587 27.2683 27.0828 27.1219 27.3442Z" fill="url(#paint1_linear_854_31092)"/>
<path d="M13.4173 26.508L11.5517 30.4289C11.4263 30.7007 11.1544 30.8785 10.8512 30.8785C10.8408 30.8785 10.8408 30.8785 10.8408 30.8785C10.548 30.8785 10.2656 30.7112 10.1402 30.4393L8.69727 27.5326L5.45597 27.7418C5.14231 27.7522 4.87044 27.6058 4.72405 27.3444C4.57766 27.083 4.58812 26.7589 4.75545 26.508L6.92417 23.7686C7.89655 24.4273 9.00487 24.5946 9.925 24.7409C10.3955 24.8141 10.8451 24.8873 11.1797 25.0023C11.5038 25.1592 11.8489 25.4206 12.2253 25.6925C12.5912 25.9538 12.9781 26.2466 13.4173 26.508Z" fill="url(#paint2_linear_854_31092)"/>
<path fill-rule="evenodd" clip-rule="evenodd" d="M15.5411 9.35629C15.5984 9.44263 15.6951 9.49454 15.7987 9.49454H17.4421V10.4041C17.3321 10.3647 17.2165 10.3279 17.0957 10.2936C16.6224 10.1591 16.1245 10.0925 15.6033 10.0925C14.7777 10.0925 14.0119 10.2493 13.311 10.5659C12.5952 10.8776 12.0275 11.3694 11.6085 12.0295L11.6064 12.033C11.1941 12.7042 11 13.5597 11 14.5804C11 15.581 11.2014 16.426 11.6274 17.0972L11.6287 17.0992C12.0514 17.7528 12.642 18.2378 13.3949 18.5473C14.1356 18.8518 14.9812 19 15.9244 19C16.553 19 17.1208 18.9292 17.6236 18.7822C18.0993 18.6541 18.4881 18.509 18.7749 18.3411C19.0171 18.2069 19.2174 18.0595 19.3515 17.8934C19.5145 17.696 19.5831 17.4553 19.5831 17.1946V9.49454H20.1562C20.3928 9.49454 20.6244 9.43165 20.7899 9.26061C20.9483 9.09683 21 8.88053 21 8.66303C21 8.53128 20.9761 8.40322 20.921 8.28407C20.883 8.19281 20.8477 8.11527 20.8156 8.05727C20.7619 7.96015 20.6597 7.89986 20.5487 7.89986H19.5831C19.5831 7.63587 19.4981 7.38147 19.2588 7.21707C19.0488 7.05314 18.7584 7 18.4559 7C18.292 7 18.1292 7.01982 17.9682 7.05868C17.8411 7.08195 17.7278 7.1082 17.64 7.13997C17.5212 7.18294 17.4421 7.29573 17.4421 7.42205V7.89986H16.17C15.9424 7.89986 15.7165 7.95842 15.5534 8.12227C15.3961 8.28041 15.3451 8.48942 15.3451 8.6972C15.3451 8.82964 15.3597 8.95592 15.3923 9.07381L15.3984 9.09595L15.4083 9.11692C15.4501 9.20512 15.4942 9.28555 15.5411 9.35629ZM17.4421 16.9784V12.2244C17.305 12.1461 17.1494 12.0733 16.974 12.0068L16.9626 12.0022C16.6351 11.864 16.2355 11.7897 15.7544 11.7897C15.286 11.7897 14.857 11.8823 14.4626 12.0658L14.4562 12.0687C14.0852 12.2316 13.7779 12.508 13.5395 12.9188C13.3074 13.3186 13.1788 13.877 13.1788 14.6146C13.1788 15.6108 13.4454 16.2768 13.9112 16.6799C14.395 17.087 15.0487 17.3028 15.9055 17.3028C16.3265 17.3028 16.6487 17.2646 16.883 17.1977C17.0888 17.1328 17.2749 17.0595 17.4421 16.9784Z" fill="#FCFCFC"/>
<defs>
<linearGradient id="paint0_linear_854_31092" x1="24.6874" y1="22.0942" x2="7.31271" y2="4.71956" gradientUnits="userSpaceOnUse">
<stop stop-color="#1250DC"/>
<stop offset="1" stop-color="#306DE4"/>
</linearGradient>
<linearGradient id="paint1_linear_854_31092" x1="25.9587" y1="29.8386" x2="21.0341" y2="23.8436" gradientUnits="userSpaceOnUse">
<stop stop-color="#769DEA"/>
<stop offset="1" stop-color="#ACC0F3"/>
</linearGradient>
<linearGradient id="paint2_linear_854_31092" x1="12.1292" y1="29.8373" x2="7.21336" y2="23.756" gradientUnits="userSpaceOnUse">
<stop stop-color="#769DEA"/>
<stop offset="1" stop-color="#ACC0F3"/>
</linearGradient>
</defs>
</svg>
