<svg width="32" height="32" viewBox="0 0 32 32" fill="none" xmlns="http://www.w3.org/2000/svg">
<path d="M10.2724 6.80566C9.69829 6.80566 9.16497 7.09074 8.84638 7.56887L7.28429 9.91207C7.21756 10.012 7.18553 10.1271 7.13232 10.2334H15.9832V6.80566H10.2724Z" fill="url(#paint0_linear_1072_35613)"/>
<path d="M25.8259 9.91203L24.2637 7.56887C23.9452 7.09074 23.3738 6.80566 22.7997 6.80566H17.127V10.2334H25.9778C25.9246 10.1271 25.8926 10.012 25.8259 9.91203Z" fill="url(#paint1_linear_1072_35613)"/>
<path d="M26.2879 11.376H6.82345C6.8217 11.417 6.80566 11.4553 6.80566 11.4965V24.5918C6.80566 25.5369 7.57447 26.3057 8.51953 26.3057H24.5918C25.5369 26.3057 26.3057 25.5369 26.3057 24.5918V11.4965C26.3057 11.4553 26.2896 11.417 26.2879 11.376ZM18.8408 17.0889H14.2705C13.3254 17.0889 12.5566 16.3201 12.5566 15.375C12.5566 14.4299 13.3254 13.6611 14.2705 13.6611H18.8408C19.7859 13.6611 20.5547 14.4299 20.5547 15.375C20.5547 16.3201 19.7859 17.0889 18.8408 17.0889Z" fill="url(#paint2_linear_1072_35613)"/>
<circle cx="25" cy="25" r="6" fill="#FCFCFC"/>
<path d="M17 24C17 27.866 20.134 31 24 31C27.866 31 31 27.866 31 24C31 20.134 27.866 17 24 17C20.134 17 17 20.134 17 24ZM22.0688 23.125L20.6281 21.6844C20.4573 21.5135 20.4573 21.2365 20.6281 21.0656L22.0688 19.625C22.2396 19.4541 22.5166 19.4541 22.6875 19.625C22.8584 19.7959 22.8584 20.0729 22.6875 20.2437L21.9937 20.9375L27.0625 20.9375C27.3041 20.9375 27.5 21.1334 27.5 21.375C27.5 21.6166 27.3041 21.8125 27.0625 21.8125L21.9937 21.8125L22.6875 22.5063C22.8584 22.6771 22.8584 22.9541 22.6875 23.125C22.5166 23.2959 22.2396 23.2959 22.0688 23.125ZM25.9312 28.375C25.7604 28.5458 25.4834 28.5458 25.3125 28.375C25.1416 28.2041 25.1416 27.9271 25.3125 27.7562L26.0063 27.0625L20.9375 27.0625C20.6959 27.0625 20.5 26.8666 20.5 26.625C20.5 26.3833 20.6959 26.1875 20.9375 26.1875L26.0063 26.1875L25.3125 25.4937C25.1416 25.3228 25.1416 25.0458 25.3125 24.875C25.4834 24.7041 25.7604 24.7041 25.9312 24.875L27.3719 26.3156C27.5427 26.4865 27.5427 26.7635 27.3719 26.9343L25.9312 28.375Z" fill="url(#paint3_linear_1072_35613)"/>
<defs>
<linearGradient id="paint0_linear_1072_35613" x1="14.687" y1="9.73145" x2="13.0545" y2="5.5161" gradientUnits="userSpaceOnUse">
<stop stop-color="#1250DC"/>
<stop offset="1" stop-color="#306DE4"/>
</linearGradient>
<linearGradient id="paint1_linear_1072_35613" x1="24.6816" y1="9.73142" x2="23.0491" y2="5.5161" gradientUnits="userSpaceOnUse">
<stop stop-color="#1250DC"/>
<stop offset="1" stop-color="#306DE4"/>
</linearGradient>
<linearGradient id="paint2_linear_1072_35613" x1="23.45" y1="24.1193" x2="13.2587" y2="10.8082" gradientUnits="userSpaceOnUse">
<stop stop-color="#1250DC"/>
<stop offset="1" stop-color="#306DE4"/>
</linearGradient>
<linearGradient id="paint3_linear_1072_35613" x1="19.0503" y1="28.9497" x2="28.9497" y2="19.0503" gradientUnits="userSpaceOnUse">
<stop stop-color="#769DEA"/>
<stop offset="1" stop-color="#ACC0F3"/>
</linearGradient>
</defs>
</svg>
